<svg width="64" height="64" viewBox="0 0 64 64" fill="none" xmlns="http://www.w3.org/2000/svg">
<path d="M8 32C8 32 12 20 20 16C16 24 14 32 14 32" stroke="#0A0A0A" stroke-width="1.5"/>
<path d="M56 32C56 32 52 20 44 16C48 24 50 32 50 32" stroke="#0A0A0A" stroke-width="1.5"/>
<path d="M10 36C10 36 8 28 12 22" stroke="#0A0A0A" stroke-width="1.5"/>
<path d="M54 36C54 36 56 28 52 22" stroke="#0A0A0A" stroke-width="1.5"/>
<path d="M14 40C14 40 10 34 12 26" stroke="#0A0A0A" stroke-width="1.5"/>
<path d="M50 40C50 40 54 34 52 26" stroke="#0A0A0A" stroke-width="1.5"/>
<path d="M32 47C33.6569 47 35 45.6569 35 44C35 42.3431 33.6569 41 32 41C30.3431 41 29 42.3431 29 44C29 45.6569 30.3431 47 32 47Z" stroke="#0A0A0A" stroke-width="1.5"/>
<path d="M20 44C28 40 36 40 44 44" stroke="#0A0A0A" stroke-width="1.5"/>
</svg>
